<svg xmlns="http://www.w3.org/2000/svg" xml:space="preserve" aria-label="Rutgers University Logo" viewBox="0 0 225 67"><path fill="#FFF" d="M183.6 62.3H182.8c-.3.7-.7 1.4-1.1 2.1-.1-.3-.3-.6-.5-.9l-.6-1.2h-.8v.1l1.5 2.7V67h.8v-1.9c.4-1.1 1-2 1.5-2.8zm-8.5 4h-.4v-1.5h1.9v-.5h-1.9v-1.4h2v-.5h-2.9V67h2.8v-.5c-.3-.2-.9-.2-1.5-.2zm-6.9-3c0-.5.5-.6.9-.6s.8.1 1.1.3h.1c0-.2 0-.4.1-.6-.4-.1-.8-.2-1.2-.2-.8 0-1.6.4-1.6 1.3 0 1.5 2.3 1.2 2.3 2.3 0 .6-.5.7-1 .7s-.8-.1-1.2-.4h-.1v.6c.4.2.9.3 1.3.3.9 0 1.8-.4 1.8-1.4-.1-1.6-2.5-1.3-2.5-2.3zm-4.7.3c0-.2-.1-.4-.2-.5-.3-.3-.7-.3-1-.3h-.4v1.6h.3c.5 0 1.3-.1 1.3-.8zm-.4 1.2c.5.7 1 1.4 1.5 2v.1h-.8c-.2-.4-.5-.7-.7-1.1l-.6-.9h-.5c0 .6 0 1.3.1 1.9h-.7v-1.9c0-.9 0-1.8-.1-2.7h1.3c.9 0 1.9.1 1.9 1.3-.3.7-.8 1.1-1.4 1.3zm-7.2 1.5h-.4v-1.5h1.9v-.5h-1.9v-1.4h2v-.5h-2.9V67h2.8v-.5c-.3-.2-.9-.2-1.5-.2zm-4.7-4.1h-.8V65.9c-.1.3-.3.4-.6.4-.1 0-.3 0-.4-.1v.6c.2 0 .3.1.5.1.9 0 1.3-.5 1.3-1.3v-3.4zm-8.5 0c-.1.6-.2 1.1-.3 1.6l-.5 2.6-.5-2.8c-.1-.5-.2-.9-.2-1.4h-1.1c-.3 1.4-.5 2.8-.8 4.2-.3-1.4-.6-2.8-.8-4.2h-.8c.2.8.4 1.5.5 2.3.2.8.4 1.5.5 2.3h1l.9-4.2.6 2.9c.1.4.2.9.3 1.3h1c0-.2.1-.4.1-.7.1-.6.3-1.2.4-1.8.2-.7.3-1.4.5-2.1h-.8zm-9.9 4.1h-.4v-1.5h1.9v-.5h-1.9v-1.4h2v-.5h-2.9V67h2.8v-.5c-.3-.2-.9-.2-1.5-.2zm-4.7-4.1h-.6c.1 1.3.1 2.6.1 3.8-.7-1.3-1.5-2.6-2.2-3.9h-1v4.6h.7c0-.6 0-1.1-.1-1.7l-.1-2.3 1.1 1.9 1.2 2.1h.9v-4.5zm-12.9 0v4.6h.8v-2h1.6v-.5h-1.7v-1.5h1.9v-.5c-.8-.1-1.7-.1-2.6-.1zm-4.2 2.4c0-.9-.3-1.9-1.4-1.9-1.1 0-1.4 1-1.4 1.9 0 .9.3 1.9 1.4 1.9 1.1-.1 1.4-1.1 1.4-1.9zm.8 0c0 1.4-.7 2.4-2.2 2.4-1.5 0-2.2-1-2.2-2.4s.7-2.5 2.2-2.5c1.5 0 2.2 1.2 2.2 2.5zm109.7-7.8 1.5-2.7V54H222.2c-.3.7-.7 1.4-1.1 2.1-.1-.3-.3-.6-.5-.9L220 54h-.8v.1l1.5 2.7v1.9h.8v-1.9zm-8.4-2.7c0 .2 0 .4-.1.5h1.3v4.1h.8v-4h1.3v-.5c-1.1-.1-2.2-.1-3.3-.1zm-3.2 0h-.8c0 .8.1 1.7.1 2.5V58.7h.8c0-.8-.1-1.7-.1-2.5v-2.1zm-6.5 1.1c0-.5.5-.6.9-.6s.8.1 1.1.3h.1c0-.2 0-.4.1-.6-.4-.1-.8-.2-1.2-.2-.8 0-1.6.4-1.6 1.3 0 1.5 2.3 1.2 2.3 2.3 0 .6-.5.7-1 .7s-.8-.1-1.2-.4h-.1v.6c.4.2.9.3 1.3.3.9 0 1.8-.4 1.8-1.4-.1-1.6-2.5-1.3-2.5-2.3zm-4.7.2c0-.2-.1-.4-.2-.5-.3-.3-.7-.3-1-.3h-.4v1.6h.3c.5 0 1.3-.1 1.3-.8zm-.4 1.3c.5.7 1 1.4 1.5 2v.1h-.8c-.2-.4-.5-.7-.7-1.1l-.6-.9h-.5c0 .6 0 1.3.1 1.9h-.8v-1.9c0-.9 0-1.8-.1-2.7h1.3c.9 0 1.9.1 1.9 1.3-.2.7-.7 1.1-1.3 1.3zm-7.2 1.5h-.4v-1.5h1.9v-.5h-1.9v-1.4h2v-.5h-2.9v4.6h2.8v-.5c-.3-.2-.9-.2-1.5-.2zm-4.9-4.1-.6 2.1-.6 2.1-1.2-4.2h-.8l.9 3c.1.4.2.7.3 1 .1.2.1.4.2.6h1c.2-.8.5-1.5.7-2.3.3-.8.5-1.5.7-2.3h-.6zm-6.3 4.6c0-.8-.1-1.7-.1-2.5V54h-.8c0 .8.1 1.7.1 2.5V58.6c.2.2.5.2.8.1zm-5.4 0h.9v-4.6h-.6c.1 1.3.1 2.6.1 3.8-.7-1.3-1.5-2.6-2.2-3.9h-1v4.6h.7c0-.6 0-1.1-.1-1.7l-.1-2.3 1.1 1.9c.4.9.8 1.5 1.2 2.2zm-6.4-1.6v-3h-.6v2.5c0 .5.1 1.1-.4 1.4-.2.2-.5.2-.8.2-.2 0-.5-.1-.7-.2-.5-.3-.4-1-.4-1.5V54h-.8v2.9c0 .2 0 .5.1.7.2.8 1 1.1 1.8 1.1 1.2.2 1.8-.4 1.8-1.6zm-10.5 1.6v-.5h-2.2v-1.5h1.9v-.5h-1.9v-1.4h2v-.5h-2.9v4.6c1.2-.1 2.1-.1 3.1-.2zm-9.3-4.6c0 .2 0 .4-.1.5h1.3v4.1h.8v-4h1.3v-.5c-1.1-.1-2.2-.1-3.3-.1zm-3.7 2.7-.7-2.2-.7 2.2h1.4zm-.1-2.7c.5 1.5 1 3.1 1.5 4.6v.1h-.8c-.1-.5-.3-.9-.4-1.4H143.1c-.1.5-.3.9-.4 1.4h-.7c.3-.9.6-1.7.9-2.6.2-.7.5-1.3.7-2h.1c.2-.1.5-.1.8-.1zm-6.9 1.9v2.8h.8v-4h1.3v-.5h-3.3v.5h1.3c-.1.3-.1.7-.1 1.2zm-4.1 1.5c0-1.6-2.4-1.3-2.4-2.2 0-.5.5-.6.9-.6s.8.1 1.1.3h.1c0-.2 0-.4.1-.6-.4-.1-.8-.2-1.2-.2-.8 0-1.6.4-1.6 1.3 0 1.5 2.3 1.2 2.3 2.3 0 .6-.5.7-1 .7s-.8-.1-1.2-.4h-.1v.6c.4.2.9.3 1.3.3.8-.1 1.7-.6 1.7-1.5zm-11.5.7h-.4v-1.5h1.9v-.5h-1.9v-1.4h2v-.5h-2.9v4.6h2.8v-.5c-.3-.2-.9-.2-1.5-.2zm-7.7-1.7h2.2v2.2h.8c-.1-.6-.1-1.3-.1-1.9v-2.7h-.8c0 .6 0 1.2.1 1.8h-2.2v-1.8h-.8c.1 1 0 1.9 0 2.9v1.7h.8c0-.5-.1-1.1-.1-1.6v-.6zm-6-1.9H107v-.5h3.3v.5H109v4h-.8v-2.8c.1-.3.1-.7.1-1.2zM0 0v36.5c.2 5.8 2.2 10.8 5.8 14.9 6.6 7.5 16.7 9.4 17.8 9.5H24.2c.7-.1 11.1-1.8 18-9.6 1.6-1.8 2.8-3.8 3.8-5.9 1.3-2.9 1.9-6.1 2-9.5V0H0zm46.3 1.2L33 15.7l-.3-.2 6.5-14.2h7.1zm-8.1 0-7.9 12.9-.4-.1L33 1.2h5.2zm-10.7 0h4.3l-4.4 12H27l.5-12zm-1.4 0-1.9 11.7h-.3L22.1 1.2h4zm-5.4 0 .5 11.9-.3.1-4.4-12h4.2zm-5.6 0L18.2 14l-.3.1L10 1.2h5.1zm-6.2 0 6.6 14.2-.3.2L1.8 1.2h7.1zm38 8.1-9.4 6.9h3.6l5.8-5.4v25.8c-.1 3.1-.8 5.9-1.9 8.5-.9 2-2.1 3.9-3.6 5.6-6.7 7.5-16.9 9.1-17.3 9.2H24c-1.1-.2-10.8-2-17.1-9.1-3.5-4-5.4-8.9-5.5-14.6V10.7l5.8 5.4h3.6L1.2 9.3v-8l10.9 14.9h24l10.8-15v8.1zM2.6 36v.5c.2 5.2 1.9 9.6 5.2 13.2 5.3 5.9 13.1 8 15.5 8.5V17.5H2.6V36zm6.5 4.8h-2v-.2h.5c.2 0 .2-.1.2-.5v-2c0-.6 0-.6-.2-.6h-.2l-.4.1v-.2h.1c.3-.1 1.2-.4 1.3-.4l.1.1v3c0 .5 0 .6.3.6h.4v.1zm9.3-5.5v.4H7.6v-.4h10.8zm-10.8-.4v-.4h10.8v.4H7.6zm5 2.3c-.2.5-.4.9-1 2.1-.3.7-.4.8-.6 1.6h-.1l-.1-.1c-.2-.1-.3-.2-.5-.4.1-.4.8-1.2 1.3-2 .3-.4.3-.7.4-.9h-1.3c-.5 0-.5 0-.7.5h-.2v-.2c0-.3.1-.5.2-.8h2.4l.1.1.1.1zm1.9 3.7c-.7 0-1.3-.5-1.3-1.6 0-1.6 1.1-2.3 2-2.3.3 0 .5.1.6.1v.2h-.4c-.8 0-1.4.7-1.4 2 0 .9.2 1.5.7 1.5.4 0 .5-.4.5-.8 0-.6-.3-1.1-.8-1.1h-.2v-.1h.1c.1-.1.3-.2.6-.2.5 0 .9.4.9 1 0 .8-.6 1.3-1.3 1.3zm3.3 0c-.7 0-1.3-.5-1.3-1.6 0-1.6 1.1-2.3 2-2.3.3 0 .5.1.6.1v.2h-.4c-.8 0-1.4.7-1.4 2 0 .9.2 1.5.7 1.5.4 0 .5-.4.5-.8 0-.6-.3-1.1-.8-1.1h-.2v-.1h.1c.1-.1.3-.2.6-.2.5 0 .9.4.9 1 0 .8-.6 1.3-1.3 1.3zm-4.8-18c.5 0 .9.4.9.9s-.4.9-.9.9-.9-.4-.9-.9.4-.9.9-.9zm-4.3 2.6c.4 0 .8.1 1.1.2.1 0 .1.1.2.1.4.2.9.3 1.3.3h.2c.5 0 1-.3 1.2-.8h.6c.2.5.7.8 1.2.8h.4c.3 0 .7-.1 1-.2.1-.1.2-.1.3-.2.3-.1.7-.2 1-.2 1.5 0 2.7 1.2 2.7 2.7 0 .7-.4 1.4-1 2.1-.4.4-.6.9-.7 1.5v.8c0 .3.1.5.2.8v.7H7.6v-.6l.1-.2c.1-.3.2-.6.2-.9V32c-.1-.6-.3-1.1-.7-1.5v-.1c-.6-.7-1-1.4-1-2.1-.2-1.6 1-2.8 2.5-2.8zm16 32.7h.1c2.6-.6 10.2-2.7 15.4-8.5 3.3-3.7 5-8.3 5.2-13.7V17.5H24.7v40.7zm7.4-18.4-.8-.4-.8.4.2-.9-.7-.6.9-.1.4-.8.4.8.9.1-.6.6.1.9zm7.7 0-.8-.4-.8.4.2-.9-.6-.6.9-.1.4-.8.4.8.9.1-.6.6v.9zm-4.4-13.5.2-.1c.1-.1.3-.2.4-.3.3-.2.9-.3 1.6-.3.3 0 .7 0 1.1.1.1 0 .3 0 .5.1.5 0 1.1 0 1.7-.2l.2-.1v.5l.3-.1.3-.1.3-.1v.5l.3-.1.3-.1.3-.1v9.9h-.1l-.3.1c-1.4.5-2.6.7-3.6.5-1.1-.2-2-.1-2.7.3h-.6V26.3zm.1 12.9.9.1-.6.7.2.9-.8-.4-.8.4.2-.9-.6-.6.9-.1.4-.8.2.7zm-7.9-13.3.3.1.3.1.3.1v-.5l.3.1.3.1.3.1v-.5l.2.1.3.1c.5.1 1 .1 1.4.1.2 0 .3 0 .5-.1.4-.1.7-.1 1.1-.1.7 0 1.3.2 1.6.3.2.1.5.2.7.4v10.5h-.6l-.2-.1c-.7-.3-1.5-.4-2.5-.2s-2.3 0-3.9-.6h-.1v-10zm8.3 10.4-.2.1V36h.2c.7-.4 1.7-.6 2.8-.4.8.1 1.7.1 2.8-.2l.3-.1h.1v-8.7c.1 0 .3-.1.4-.1v9.1c-1.4.5-2.7.7-3.6.5-1.1-.3-2-.2-2.8.2zm-7.6-.7-.3-.1.2-9 .2.1v8.7h.1c1.2.4 2.3.5 3.1.3 1.1-.2 2-.1 2.8.4h.1v.4c-.8-.5-1.8-.6-3-.4-.8.2-1.9.1-3.2-.4zm7.6-.1-.2.1v-.4l.1-.1c.2-.1.7-.4 1.7-.5H37.8c.2 0 .5 0 .7.1.6.1 1.3.1 2-.1l.3-.1h.2v-8.3c.1 0 .3-.1.4-.1V35c-1.1.3-2 .4-2.8.3-1-.3-1.9-.2-2.7.2zm-6.8-.5h-.3l.2-8.7h.2v8.3h.2c.9.2 1.7.2 2.3.1.3 0 .5-.1.7-.1H32.7c.9 0 1.4.3 1.6.4h.1l.1.1v.4c-.8-.5-1.8-.6-3-.4-.6.3-1.4.2-2.4-.1zm3.6-2.1c.3 0 .6 0 .9.1l.2.1v.5c-.4-.2-.8-.2-1.1-.2-.2 0-.4 0-.6.1-.2 0-.4.1-.7.1h-1.1V33c.4.1.7.1 1.1.1.2 0 .4-.1.6-.1.2 0 .4-.1.7-.1zm4 .6-.2.1v-.5c.4-.1.8-.2 1.1-.2.3 0 .5 0 .7.1.2 0 .3.1.6.1H40v.5c-.4.1-.7.1-1.1.1-.3 0-.5-.1-.7-.1-.2 0-.4-.1-.6-.1-.3-.1-.6-.1-.9 0zM8.9 32.1h1.3v1.3H8.9v-1.3zm2.3 0h1.3v1.3h-1.3v-1.3zm4.6 0h1.3v1.3h-1.3v-1.3zm-1 1.2h-1.3V32h1.3v1.3zm21.9-1-.2.1v-.5c.4-.1.8-.2 1.1-.2.3 0 .5 0 .7.1.2 0 .3.1.6.1H40v.5c-.4.1-.7.1-1.1.1-.3 0-.5-.1-.7-.1-.2 0-.4-.1-.6-.1-.3-.2-.6-.1-.9 0zm-2.9.1c-.4-.2-.8-.2-1.1-.2-.2 0-.4 0-.6.1-.2 0-.4.1-.7.1h-1.1v-.5c.4.1.7.1 1.1.1.2 0 .4-.1.6-.1.2 0 .4-.1.7-.1.3 0 .6 0 .9.1l.2.1v.4zM7.9 29.5c-.6-.7-.7-.9-.7-1.4 0-.8.7-1.5 1.5-1.5.2 0 .4 0 .6.1.1 0 .1.1.2.1.6.3 1.2.4 1.8.4h.2c.2 0 .4 0 .6-.1l.2-.1.1-.1v4.2H8.8V31c-.2-.5-.5-1-.9-1.5zm9.3 1.7h-3.6V27l.1.1c.3.1.5.2.8.2H14.8c.5 0 1-.1 1.5-.3l.2-.1.1-.1c.1 0 .1-.1.2-.1.2-.1.4-.1.6-.1.8 0 1.5.7 1.5 1.5 0 .5-.7 1.3-.7 1.4-.4.4-.6.9-.8 1.3l-.2.4zm19.5-.1-.2.1v-.5c.4-.1.8-.2 1.1-.2.3 0 .5 0 .7.1.2 0 .3.1.6.1H40v.3c-.4.1-.7.1-1.1.1-.3 0-.5-.1-.7-.1-.2 0-.4-.1-.6-.1-.3 0-.6.1-.9.2zm-2.9.1c-.4-.2-.8-.2-1.1-.2-.2 0-.4 0-.6.1-.2 0-.4.1-.7.1h-1.1v-.5c.4.1.7.1 1.1.1.2 0 .4-.1.6-.1.2 0 .4-.1.7-.1.3 0 .6 0 .9.1l.2.1v.4zm2.9-1.4-.2.1v-.5c.4-.1.8-.2 1.1-.2.3 0 .5 0 .7.1.2 0 .3.1.6.1H40v.5c-.4.1-.7.1-1.1.1-.3 0-.5-.1-.7-.1-.2 0-.4-.1-.6-.1-.3-.1-.6-.1-.9 0zm-6.1 0h-.3v-.5c.4.1.7.1 1.1.1.2 0 .4-.1.6-.1.2 0 .4-.1.7-.1.3 0 .6 0 .9.1l.2.1v.5c-.4-.2-.8-.2-1.1-.2-.2 0-.4 0-.6.1-.2 0-.4.1-.7.1-.2 0-.5 0-.8-.1zm0-1.2h-.3v-.5c.4.1.7.1 1.1.1.2 0 .4-.1.6-.1.2 0 .4-.1.7-.1.3 0 .6 0 .9.1l.2.1v.5c-.4-.2-.8-.2-1.1-.2-.2 0-.4 0-.6.1-.2 0-.4.1-.7.1-.2 0-.5-.1-.8-.1zm6.1 0-.2.1v-.5c.4-.1.8-.2 1.1-.2.3 0 .5 0 .7.1.2 0 .3.1.6.1H40v.5c-.4.1-.7.1-1.1.1-.3 0-.5-.1-.7-.1-.2 0-.4-.1-.6-.1-.3-.2-.6-.1-.9 0zm0-1.2-.2.1V27c.4-.1.8-.2 1.1-.2.3 0 .5 0 .7.1.2 0 .3.1.6.1H40v.5c-.4.1-.7.1-1.1.1-.3 0-.5-.1-.7-.1-.2 0-.4-.1-.6-.1-.3-.2-.6-.1-.9 0zm-6.1 0h-.3v-.5c.4.1.7.1 1.1.1.2 0 .4-.1.6-.1.2 0 .4-.1.7-.1.3 0 .6 0 .9.1l.2.1v.5c-.4-.2-.8-.2-1.1-.2-.2 0-.4 0-.6.1-.2 0-.4.1-.7.1-.2-.1-.5-.1-.8-.1zM82.4 36.1c-1.3-2.3-4.7-8.5-5.1-10.9v-.3c3.1-1.5 5.6-3.9 5.6-7.6C82.8 8.1 74 9 67.4 9H60v.7l1.6.1c.9.1 1.5.2 1.7 1.1.3 1.1.2 4 .2 5.2v16.4c0 1.2.1 4.1-.2 5.2-.3.9-.8 1-1.7 1.1L60 39v.7h10.9V39l-1.6-.1c-.9-.1-1.5-.2-1.7-1.1-.3-1.1-.2-4-.2-5.2v-6.4h2.7c.8 0 1.9 0 2.7.4.5.3 1 .8 1.3 1.6 1.5 3 3.1 6.3 4.8 9.2 4.2 7.1 11.3 15.9 19.3 15.6h1v-.9h-.7c-5.6.3-13.2-10.6-16.1-16zM71 25.1c-1.2 0-2.4.1-3.6 0V10.6c1-.2 2-.4 3.1-.4 5.1 0 7.9 3 7.9 7.9 0 4.6-2.8 7-7.4 7zm32.5-10.6h9.4v.8l-1.4.1c-1.5.2-1.5.3-1.5 4.7v19.6l-1.2.3-1-1.1c-.5-.5-.8-1.1-1.4-1.1-.5 0-3.7 2.4-8.9 2.4-8 0-8.6-4.5-8.6-9.7V19.6c0-3.8-.1-4-1.5-4.2l-1.4-.1v-.8h9.4v.8l-1.4.1c-1.4.1-1.5.3-1.5 4.2v10.3c0 5.5.9 9.1 6.9 9.1 4 0 6.4-2.4 7-3.1V19.8c0-4.1-.1-4.3-1.5-4.4l-1.4-.1v-.8zm48.1 15.2h9.8v.8l-1.4.1c-.7.1-.7.3-.7 3.5v.5c0 1.1.1 4.1.1 4.1-1.4.4-4.3 1.5-8.4 1.5-7.7 0-14.7-3.4-14.7-13.1 0-10.2 8.3-13.2 14.4-13.2 3.9 0 6.9 1 7.9 1.6.2 1.6.4 3.8.6 5.7l-1 .2c-.4-1.5-.9-6.2-7.5-6.2-6.3 0-10.3 4.1-10.3 11.3 0 6.5 3.3 12.6 10.9 12.6 1.4 0 3.2-.2 4.5-.5v-3.4c0-4.2-.1-4.3-2.7-4.5l-1.4-.1v-.9zm73.4 3.5c0 5.2-4.8 7.1-8.9 7.1-3 0-4.9-.8-6-1.5-.4-1.4-.8-4.1-1.2-6.7l1.2-.3c.4 2.8 1.8 7.3 7.1 7.3 2.7 0 4.6-1.7 4.6-4.7 0-2.8-2.3-4.7-5.4-6L214 27c-2.2-1.2-4.2-3.6-4.2-6.4 0-4.7 3.9-6.6 8-6.6 2.4 0 4.3.6 5.3 1.2.2 1.4.3 4.2.4 5.3h-1c-.4-1.9-1-5.2-5.3-5.2-2.2 0-4.2 1.6-4.2 4.2 0 2.3 1.7 3.5 3.7 4.7l2.1 1.2c3 1.6 6.2 3.2 6.2 7.8zm-22.9-.3c-1-1.8-2.3-4.3-2.9-5.4 2.1-1 5.3-3.1 5.3-6.7 0-5.8-5.2-6.3-8.8-6.3h-10v.8l1.4.1c1.4.1 1.5.3 1.5 4.2v15c0 3.9-.1 4-1.5 4.2l-1.4.1v.8h9.3v-.8l-1.4-.1c-1.4-.1-1.5-.3-1.5-4.2v-5.9h1.6c.8 0 1.6 0 2.2.5.5.4 1.4 1.9 2.4 3.7l1.5 2.9c1.2 2.1 2.9 3.8 5.5 3.8h3v-.8c-.8 0-1.5-.1-1.9-.4-1-.4-2.7-2.7-4.3-5.5zm-7.8-5.2h-2.2V16.1c.8-.2 1.6-.3 2.4-.3 3 0 6 1.4 6 5.8 0 4.3-2.9 6.1-6.2 6.1zm-12.6 5.5 1 .2c-.3 2.4-.8 4.3-1.3 6.3h-17.6v-.8l1.4-.1c1.4-.1 1.5-.3 1.5-4.2v-15c0-3.9-.1-4-1.5-4.2l-1.4-.1v-.8h16.6c.2.8.3 5.2.3 5.6l-.9.2c-.8-4.1-.9-4.7-6.4-4.7h-3.2v10.5h3.7c2.8 0 3.4-.1 3.7-1.6l.2-1.3h1v6.9h-1l-.2-1.3c-.2-1.6-.9-1.6-3.9-1.6h-3.4v11c1.4.3 2.8.5 4.2.5 6 0 6.4-2.3 7.2-5.5zm-46.5-18.7c.2.8.3 5.9.3 6.1h-.9c-.8-4.4-.9-5-6.4-5h-2v18.7c0 4.1.1 4.3 2.2 4.5l1.4.1v.8h-10.7v-.8l1.4-.1c2-.1 2.1-.3 2.1-4.2v-19h-2.3c-5.2 0-5.2.7-6.1 5h-.9c0-.2.2-5.2.3-6.1h21.6z"/></svg>